<?xml version="1.0" encoding="utf-8"?>
<!-- Generator: Adobe Illustrator 24.1.2, SVG Export Plug-In . SVG Version: 6.00 Build 0)  -->
<svg version="1.1" id="Calque_1" xmlns="http://www.w3.org/2000/svg" xmlns:xlink="http://www.w3.org/1999/xlink" x="0px" y="0px"
	 viewBox="0 0 200 200" style="enable-background:new 0 0 200 200;" xml:space="preserve">
<g>
	<path d="M80.5,35.7c-0.2-1.3-0.2-3.7,0.3-5.5c1.9-4.8,1.6-10.3-0.7-15c-4.5-9.3-15.4-13.3-24.5-9c-9,4.3-12.7,15.4-8.2,24.7
		c2,4.1,5.3,7.3,9.4,9.2c0.2,0.1,0.4,0.2,0.6,0.3l0,0c0.1,0.1,0.2,0.1,0.3,0.1c0,0,0,0,0,0c0.1,0,0.2,0.1,0.3,0.1l0.1,0
		c1.7,0.7,4,2.3,5,3.4c2.9,3.3,6.6,8.9,10.8,16.7l15.2,31.6c4.4,9.9,5.7,13.9,6.2,15.5l-1.4,0.7c-1.6,0.8-2.2,2.7-1.5,4.2l35.1,72.9
		c0.1,0.2,0.2,0.3,0.3,0.4l3,6.3c1.4,3,5,4.1,8,2.6l12.1-5.8c3-1.5,4.3-4.8,2.8-7.8l-3-6.3c0-0.2,0-0.4-0.1-0.6l-35.1-72.9
		c-0.8-1.6-2.7-2.2-4.2-1.5l-1.1,0.5c-0.7-0.9-2.5-3.6-6.5-11.2l-17.8-37C83,45.3,81.2,39.7,80.5,35.7z M150.1,187.2L138,193
		c-2,1-4.2,0.3-5.1-1.6l-2.7-5.7l19-9.2l2.7,5.7C152.8,184.2,152.1,186.2,150.1,187.2z M113.4,102.6l34.6,71.8l-18.8,9l-34.6-71.8
		c-0.2-0.4,0-0.8,0.3-1l2.3-1.1l13.2-6.4l1.9-0.9C112.8,102.1,113.2,102.3,113.4,102.6z M101.5,90.5c3.3,6.3,5.3,9.6,6.5,11.2
		l-10.4,5c-0.6-2-2.2-6.4-6.2-15.4c0,0,0,0,0,0L76.2,59.6c0,0,0,0,0-0.1c-4.3-8-8.1-13.8-11.2-17.2c-1.2-1.4-3.8-3.3-5.9-4.1
		c0,0,0,0,0,0l-0.1-0.1c-0.1,0-0.1,0-0.2-0.1c0,0,0,0,0,0c0,0-0.1,0-0.1,0c0,0-0.1,0-0.1-0.1l-0.1,0c-0.2-0.1-0.4-0.1-0.5-0.2
		c-3.6-1.6-6.5-4.4-8.2-8c-3.9-8.1-0.7-17.7,7.1-21.5S74,8.1,77.9,16.2c2,4.2,2.2,9,0.6,13.2c0,0,0,0.1,0,0.1
		c-0.6,2.2-0.6,5.1-0.3,6.6c0.7,4.1,2.6,9.9,5.6,17.2c0,0,0,0,0,0.1L101.5,90.5C101.5,90.5,101.5,90.5,101.5,90.5z"/>
	<path d="M76.4,16.9c-3.4-7-11.8-9.9-18.8-6.6s-9.9,11.8-6.6,18.8c3.4,7,11.8,9.9,18.8,6.6C76.9,32.3,79.8,23.9,76.4,16.9z
		 M68.8,33.5C63,36.2,56.1,33.8,53.3,28c-2.8-5.8-0.3-12.7,5.4-15.5s12.7-0.3,15.5,5.4C77,23.7,74.6,30.7,68.8,33.5z"/>
	<path d="M68.5,22.2c-0.1-0.5-0.2-0.9-0.4-1.3c-1.1-2.3-3.8-3.2-6.1-2.2c-1.6-0.9-3.9-2.2-4.4-2.4c-0.6-0.2-1.2,0.1-1.7,0.9
		c0,0-2.5,4.3-1.1,5.7c0,0,0,0,0,0c0.2,0.2,0.7,0.8,4.7,1.5c0.1,0.2,0.1,0.4,0.2,0.6c0.9,1.9,3,2.9,5,2.5c2.5,1.2,4.3,2.1,4.5,2.2
		c0.4,0.2,0.8,0.2,1.2,0c0.1-0.1,0.2-0.1,0.4-0.2c0.4-0.4,0.9-1.3,1.4-2.8c0.8-2.3,0.6-2.7,0.5-3C72.4,23.3,72.2,23,68.5,22.2z
		 M69.5,27.5c-1-0.5-2.7-1.4-4.2-2.1c-0.2-0.1-0.5-0.1-0.8-0.1c-1.1,0.3-2.4-0.2-2.9-1.3c-0.1-0.2-0.2-0.5-0.2-0.7
		c-0.1-0.5-0.4-0.8-0.9-0.9c-2.2-0.4-3.5-0.7-4-0.9c0.1-0.7,0.6-2,1-2.7c0.8,0.4,2.3,1.3,3.7,2c0.1,0.1,0.2,0.1,0.2,0.2
		c0.3,0.2,0.8,0.2,1.1,0c0.1-0.1,0.2-0.1,0.3-0.2c1.2-0.6,2.7-0.1,3.3,1.1c0.2,0.4,0.2,0.8,0.2,1.2c0,0.5,0.3,1,0.9,1.1
		c1.7,0.3,2.7,0.6,3.2,0.7C70.3,25.6,69.9,26.8,69.5,27.5z"/>
</g>
</svg>
