<?xml version="1.0" encoding="utf-8"?>
<!-- Generator: Adobe Illustrator 24.1.2, SVG Export Plug-In . SVG Version: 6.00 Build 0)  -->
<svg version="1.1" id="Calque_1" xmlns="http://www.w3.org/2000/svg" xmlns:xlink="http://www.w3.org/1999/xlink" x="0px" y="0px"
	 viewBox="0 0 200 200" style="enable-background:new 0 0 200 200;" xml:space="preserve">
<style type="text/css">
	.st0{fill:none;stroke:#000000;stroke-width:3;stroke-miterlimit:10;}
	.st1{fill:none;stroke:#000000;stroke-width:3;stroke-linecap:round;stroke-linejoin:round;stroke-miterlimit:10;}
</style>
<g>
	<path class="st0" d="M93,138.5c0.4,2.5-1.3,4.8-3.7,5.2l-46.7,7.6c-2.5,0.4-4.8-1.3-5.2-3.7l-2-12.2c-0.4-2.5,1.3-4.8,3.7-5.2
		l46.7-7.6c2.5-0.4,4.8,1.3,5.2,3.7L93,138.5z"/>
	<path class="st1" d="M99.5,52.1c-3.6-1.7-7.9-0.1-9.6,3.5l-5.7,12.7l-1.4-13.1l-4.8-29.7c-0.6-3.9-4.4-6.6-8.3-6
		c-3.9,0.6-6.6,4.3-6,8.3l4.1,25.1c0,0.2-0.1,0.4-0.3,0.4c-0.2,0-0.4-0.1-0.4-0.3l-6.2-38.3c-0.6-3.9-4.4-6.6-8.3-6
		c-3.9,0.6-6.6,4.3-6,8.3l6.2,38.3c0,0.2-0.1,0.4-0.3,0.4c-0.2,0-0.4-0.1-0.4-0.3l-5.2-31.9c-0.6-3.9-4.4-6.6-8.3-6
		c-3.9,0.6-6.6,4.4-6,8.3l5.1,31.9c0,0.2-0.1,0.4-0.3,0.4c-0.2,0-0.4-0.1-0.4-0.3l-3.5-21.6c-0.6-3.9-4.4-6.6-8.3-6
		c-3.9,0.6-6.6,4.4-6,8.3l10.1,62c0.4,2.7,2.3,4.7,4.6,5.6l3.9,24.3c0.4-0.2,0.8-0.4,1.3-0.4l46.7-7.6c0.5-0.1,0.9-0.1,1.3,0
		l-3.9-23.7l0.1-0.1c1.9-0.6,3.6-1.9,4.5-3.9L103,61.7C104.7,58.1,103.1,53.8,99.5,52.1z"/>
</g>
<g>
	<path class="st0" d="M96.9,173.2c-0.7,2.4,0.7,4.9,3.1,5.5l45.6,12.6c2.4,0.7,4.9-0.7,5.5-3.1l3.3-11.9c0.7-2.4-0.7-4.9-3.1-5.5
		l-45.6-12.6c-2.4-0.7-4.9,0.7-5.5,3.1L96.9,173.2z"/>
	<path class="st1" d="M99.7,86.6c3.8-1.3,7.9,0.8,9.1,4.5l4.4,13.2l2.8-12.8l8-29c1.1-3.8,5-6.1,8.9-5c3.8,1.1,6.1,5,5,8.9
		l-6.8,24.5c-0.1,0.2,0.1,0.4,0.3,0.5c0.2,0.1,0.4-0.1,0.5-0.3l10.3-37.4c1.1-3.8,5-6.1,8.9-5c3.8,1.1,6.1,5,5,8.9l-10.3,37.4
		c-0.1,0.2,0.1,0.4,0.3,0.5c0.2,0.1,0.4-0.1,0.5-0.3l8.5-31.1c1.1-3.8,5-6.1,8.9-5c3.8,1.1,6.1,5,5,8.9l-8.5,31.1
		c-0.1,0.2,0.1,0.4,0.3,0.5c0.2,0.1,0.4-0.1,0.5-0.3l5.7-21.1c1.1-3.8,5-6.1,8.9-5c3.8,1.1,6.1,5,5,8.9l-16.7,60.6
		c-0.7,2.6-2.8,4.5-5.2,5.1l-6.5,23.7c-0.4-0.2-0.8-0.4-1.2-0.6l-45.6-12.6c-0.4-0.1-0.9-0.2-1.3-0.1l6.4-23.2l-0.1-0.1
		c-1.9-0.8-3.4-2.3-4.1-4.4L95.2,95.8C93.9,92,95.9,87.9,99.7,86.6z"/>
</g>
</svg>
