<?xml version="1.0" encoding="utf-8"?>
<!-- Generator: Adobe Illustrator 24.1.2, SVG Export Plug-In . SVG Version: 6.00 Build 0)  -->
<svg version="1.1" id="Calque_1" xmlns="http://www.w3.org/2000/svg" xmlns:xlink="http://www.w3.org/1999/xlink" x="0px" y="0px"
	 viewBox="0 0 200 200" style="enable-background:new 0 0 200 200;" xml:space="preserve">
<g>
	<path d="M146,177.9l-7.6,3.9c-7.8,4-17.5,1-21.5-6.9l-3.9-7.6l36-18.6l3.9,7.6C156.9,164.2,153.9,173.9,146,177.9z M117.3,168.7
		l2.5,4.8c3.2,6.3,11,8.7,17.2,5.5l7.6-3.9c6.3-3.2,8.7-11,5.5-17.2l-2.5-4.8L117.3,168.7z"/>
	<path d="M150.4,151.6l-36,18.6l-36.2-70.1l36-18.6L150.4,151.6z M115.8,165.9l30.3-15.6l-33.3-64.4l-30.3,15.6L115.8,165.9z"/>
	<path d="M115.3,84.6l-35.2,18.2l-14.6-14l-0.9-1.7l2.4-1.2l43.6-22.5l0.9-0.5l0.9,1.7l0,0.3L115.3,84.6z M80.7,98.9l31.1-16.1
		l-2.2-15.3L69.5,88.2L80.7,98.9z"/>
	<path d="M112.3,65.3l-0.1,0.9L67.5,89.3l-1-0.1l-1.2-0.8l-11.9-23l46.9-24.2l12,23.1L112.3,65.3z M67.5,85.7l41.2-21.3l-9.8-18.9
		L57.7,66.8L67.5,85.7z"/>
	<path d="M101,44.4L55.7,67.8c-3.9,2-8.7,0.5-10.7-3.4s-0.5-8.7,3.4-10.7l45.4-23.4c3.9-2,8.7-0.5,10.7,3.4
		C106.5,37.6,104.9,42.4,101,44.4z M49.8,56.5c-2.3,1.2-3.3,4.1-2,6.4c1.2,2.3,4.1,3.3,6.4,2l45.4-23.4c2.3-1.2,3.3-4.1,2-6.4
		c-1.2-2.3-4.1-3.3-6.4-2L49.8,56.5z"/>
	<path d="M62.8,25.2c-1,0.5-2.3,0.1-2.9-0.9l-3-5.9c-0.5-1-0.1-2.3,0.9-2.9c1-0.5,2.3-0.1,2.9,0.9l3,5.9
		C64.2,23.4,63.8,24.7,62.8,25.2z"/>
	<path d="M83.9,22.2c-0.5,0.2-1.1,0.3-1.6,0.1c-1.1-0.4-1.7-1.6-1.4-2.7l2-6.3c0.4-1.1,1.6-1.7,2.7-1.4c1.1,0.4,1.7,1.6,1.4,2.7
		l-2,6.3C84.7,21.5,84.3,21.9,83.9,22.2z"/>
	<path d="M47.9,40.2c-0.5,0.2-1.1,0.3-1.6,0.1l-6.3-2c-1.1-0.4-1.7-1.6-1.4-2.7c0.4-1.1,1.6-1.7,2.7-1.4l6.3,2
		c1.1,0.4,1.7,1.6,1.4,2.7C48.7,39.5,48.4,40,47.9,40.2z"/>
	<path d="M65,88.3"/>
	<path d="M112.3,64.4"/>
	<path d="M113.1,123.4c-3.1,1.6-7,0.4-8.6-2.8l-4.2-8.1c-1.6-3.1-0.4-7,2.8-8.6s7-0.4,8.6,2.8l4.2,8.1
		C117.5,117.9,116.3,121.8,113.1,123.4z M104.5,106.7c-1.6,0.8-2.2,2.8-1.4,4.3l4.2,8.1c0.8,1.6,2.8,2.2,4.3,1.4
		c1.6-0.8,2.2-2.8,1.4-4.3l-4.2-8.1C108,106.5,106.1,105.9,104.5,106.7z"/>
</g>
</svg>
