<?xml version="1.0" encoding="utf-8"?>
<!-- Generator: Adobe Illustrator 24.1.2, SVG Export Plug-In . SVG Version: 6.00 Build 0)  -->
<svg version="1.1" id="Calque_1" xmlns="http://www.w3.org/2000/svg" xmlns:xlink="http://www.w3.org/1999/xlink" x="0px" y="0px"
	 viewBox="0 0 200 200" style="enable-background:new 0 0 200 200;" xml:space="preserve">
<style type="text/css">
	.st0{fill:#020202;}
</style>
<g>
	<path d="M95.7,28.6c4.6,0,8.3,3.7,8.3,8.3v126.3c0,4.6-3.7,8.3-8.3,8.3H35.5c-4.6,0-8.3-3.7-8.3-8.3V36.8c0-4.6,3.7-8.3,8.3-8.3
		H95.7 M95.7,25.6H35.5c-6.2,0-11.3,5.1-11.3,11.3v126.3c0,6.2,5.1,11.3,11.3,11.3h60.3c6.2,0,11.3-5.1,11.3-11.3V36.8
		C107,30.6,102,25.6,95.7,25.6L95.7,25.6z"/>
	<path d="M91.2,40.2v32.7H39.3V40.2H91.2 M92.4,37.2H38.2c-1,0-1.8,0.8-1.8,1.8v35.1c0,1,0.8,1.8,1.8,1.8h54.2c1,0,1.8-0.8,1.8-1.8
		V39C94.2,38,93.4,37.2,92.4,37.2L92.4,37.2z"/>
	<g>
		<circle cx="38.3" cy="84.4" r="3.6"/>
	</g>
	<g>
		<circle cx="37.1" cy="158.7" r="3.6"/>
	</g>
	<g>
		<circle cx="54.9" cy="158.7" r="3.6"/>
	</g>
	<g>
		<circle cx="72.8" cy="158.7" r="3.6"/>
	</g>
	<g>
		<circle cx="90.6" cy="158.7" r="3.6"/>
	</g>
	<g>
		<circle cx="93" cy="84.4" r="3.6"/>
	</g>
	<path d="M65.6,89.2c14.2,0,25.7,11.5,25.7,25.7c0,14.2-11.5,25.7-25.7,25.7s-25.7-11.5-25.7-25.7C39.9,100.7,51.4,89.2,65.6,89.2
		 M65.6,86.2c-15.8,0-28.7,12.9-28.7,28.7s12.9,28.7,28.7,28.7s28.7-12.9,28.7-28.7S81.4,86.2,65.6,86.2L65.6,86.2z"/>
	<rect x="34.1" y="109.6" transform="matrix(0.7181 -0.696 0.696 0.7181 -59.9382 74.159)" width="54.9" height="3"/>
	<rect x="40.6" y="117.6" transform="matrix(0.7181 -0.696 0.696 0.7181 -63.701 80.9128)" width="54.9" height="3"/>
	<path class="st0" d="M126.5,155.1h-20.9v-3h20.9c2.2,0,4.1-1.8,4.1-4.1v-9.9h3v9.9C133.5,152,130.4,155.1,126.5,155.1z"/>
	<path class="st0" d="M156.8,165.8h-51c-0.1,0-0.2-0.1-0.2-0.2V163c0-0.1,0.1-0.2,0.2-0.2h50.1c3.2,0,5.8-2.6,5.8-5.8v-18.6
		c0-0.1,0.1-0.2,0.2-0.2h2.6c0.1,0,0.2,0.1,0.2,0.2v19.5C164.7,162.2,161.1,165.8,156.8,165.8z"/>
	<path class="st0" d="M139,139.7h-14.2V50.9c0-3.5,2.8-6.3,6.3-6.3h1.7c3.5,0,6.3,2.8,6.3,6.3V139.7z M127.7,136.7h8.2V50.9
		c0-1.8-1.5-3.3-3.3-3.3H131c-1.8,0-3.3,1.5-3.3,3.3V136.7z"/>
	<path class="st0" d="M170.3,139.5h-14.2V50.7c0-3.5,2.8-6.3,6.3-6.3h1.7c3.5,0,6.3,2.8,6.3,6.3V139.5z M159.1,136.5h8.2V50.7
		c0-1.8-1.5-3.3-3.3-3.3h-1.7c-1.8,0-3.3,1.5-3.3,3.3V136.5z"/>
	<path class="st0" d="M142.6,69.9h-21.6c-0.8,0-1.5-0.7-1.5-1.5s0.7-1.5,1.5-1.5h21.6c0.8,0,1.5,0.7,1.5,1.5S143.5,69.9,142.6,69.9z
		"/>
	<path class="st0" d="M174.3,69.9h-21.6c-0.8,0-1.5-0.7-1.5-1.5s0.7-1.5,1.5-1.5h21.6c0.8,0,1.5,0.7,1.5,1.5S175.2,69.9,174.3,69.9z
		"/>
	<path d="M131.9,47.6c-0.8,0-1.5-0.7-1.5-1.5V33c0-0.8,0.7-1.5,1.5-1.5s1.5,0.7,1.5,1.5v13.1C133.4,47,132.7,47.6,131.9,47.6z"/>
	<path d="M163.2,47c-0.8,0-1.5-0.7-1.5-1.5V33c0-0.8,0.7-1.5,1.5-1.5s1.5,0.7,1.5,1.5v12.5C164.7,46.3,164,47,163.2,47z"/>
</g>
</svg>
