<?xml version="1.0" encoding="utf-8"?>
<!-- Generator: Adobe Illustrator 24.1.2, SVG Export Plug-In . SVG Version: 6.00 Build 0)  -->
<svg version="1.1" id="Calque_1" xmlns="http://www.w3.org/2000/svg" xmlns:xlink="http://www.w3.org/1999/xlink" x="0px" y="0px"
	 viewBox="0 0 200 200" style="enable-background:new 0 0 200 200;" xml:space="preserve">
<g>
	<g>
		<g>
			<path d="M99.8,89c-4.2,0-7.6-3.4-7.6-7.6s3.4-7.6,7.6-7.6c4.2,0,7.6,3.4,7.6,7.6S104,89,99.8,89z M99.8,75.9
				c-3,0-5.5,2.5-5.5,5.5s2.5,5.5,5.5,5.5s5.5-2.5,5.5-5.5S102.9,75.9,99.8,75.9z"/>
			<path d="M99.8,89.1c-4.3,0-7.7-3.5-7.7-7.7c0-4.3,3.5-7.7,7.7-7.7c4.3,0,7.7,3.5,7.7,7.7C107.6,85.6,104.1,89.1,99.8,89.1z
				 M99.8,76c-3,0-5.4,2.4-5.4,5.4c0,3,2.4,5.4,5.4,5.4c3,0,5.4-2.4,5.4-5.4C105.3,78.4,102.8,76,99.8,76z"/>
		</g>
		<path d="M99.8,95.2C92.2,95.2,86,89,86,81.3c0-7.6,6.2-13.9,13.9-13.9c7.6,0,13.9,6.2,13.9,13.9C113.7,89,107.5,95.2,99.8,95.2z
			 M99.8,70c-6.2,0-11.3,5.1-11.3,11.3c0,6.2,5.1,11.3,11.3,11.3s11.3-5.1,11.3-11.3C111.2,75.1,106.1,70,99.8,70z"/>
		<g>
			<path d="M87.6,81.3c-0.3,0-0.5-0.1-0.7-0.3L82,76.8c-0.3-0.3-0.5-0.7-0.4-1.1L98.7,7c0.1-0.6,0.7-0.9,1.2-0.9
				c0.6,0.1,1,0.6,1,1.1l-0.1,26.6v9.2c0,0.4-0.3,0.8-0.6,1l-0.5,0.7l0.2,0.3c0.3,0.4,0.3,0.9,0,1.3l-0.3,0.4l0.3,0.4
				c0.3,0.4,0.3,0.9,0,1.3l-0.4,0.5l0.4,0.6c0.2,0.4,0.2,0.9,0,1.2l-0.5,0.7l0.5,0.8c0.2,0.4,0.2,0.8,0,1.2l-0.6,0.9l0.4,0.7
				c0.3,0.5,0.1,1.1-0.3,1.5c-0.7,0.5-1.4,1.9-1.5,4.1c-0.1,1.5,0.2,2.7,0.7,3.2c0.3,0.3,0.7,0.5,1.3,0.5c0.6,0,1.1,0.5,1.1,1.1v2.9
				c0,0.6-0.5,1.1-1.1,1.1c-5.9,0.1-11.3,4.5-11.6,10.4c0,0.4,0.3,1.1-0.1,1.2C87.9,81.3,87.8,81.3,87.6,81.3z M84,75.6l2.8,2.4
				c1.2-5.7,6-10,11.8-10.5v-0.8c-0.7-0.2-1.3-0.5-1.8-1.1c-1-1.1-1.5-2.7-1.3-4.9c0.1-2.1,0.7-3.9,1.7-5l-0.3-0.5
				c-0.2-0.4-0.2-0.8,0-1.2l0.6-0.9L97,52.2c-0.2-0.4-0.2-0.9,0-1.2l0.5-0.7l-0.4-0.6c-0.2-0.4-0.2-0.9,0-1.3l0.4-0.5l-0.3-0.5
				c-0.3-0.4-0.3-0.9,0-1.3l0.3-0.4l-0.2-0.3c-0.3-0.4-0.3-1,0-1.4l1.2-1.5v-8.7l0.1-17.2L84,75.6z"/>
			<path d="M112.6,81.4c-0.2,0-0.3,0-0.4-0.1c-0.4-0.2-0.7-0.6-0.7-1c-0.2-5.9-5-10.6-10.9-10.7c-0.6,0-1.1-0.5-1.1-1.1v-2.9
				c0-0.6,0.5-1.1,1.1-1.1c0.5,0,1-0.2,1.3-0.5c0.5-0.6,0.8-1.7,0.7-3.2c-0.1-2.1-0.9-3.6-1.5-4.1c-0.5-0.3-0.6-1-0.3-1.5l0.4-0.7
				l-0.6-0.9c-0.2-0.4-0.2-0.8,0-1.2l0.5-0.8l-0.5-0.7c-0.3-0.4-0.3-0.9,0-1.2l0.4-0.6l-0.4-0.5c-0.3-0.4-0.3-0.9,0-1.3l0.3-0.4
				l-0.3-0.4c-0.3-0.4-0.3-0.9,0-1.3l0.2-0.3l-0.5-0.7c-0.4-0.2-0.6-0.6-0.6-1v-9.2l0.3-26.6c0-0.6,0.4-1.1,1-1.1
				c0.6-0.1,1.1,0.3,1.2,0.9l16.7,68.7c0.1,0.4,0,0.8-0.4,1.1l-4.9,4.3C113.2,81.3,112.9,81.4,112.6,81.4z M101.7,67.4
				c5.8,0.6,10.6,4.9,11.8,10.6l2.8-2.4l-14.4-59.2l-0.2,17.5v8.7l1.2,1.5c0.3,0.4,0.3,1,0,1.4l-0.2,0.3l0.3,0.4
				c0.3,0.4,0.3,0.9,0,1.3l-0.3,0.5l0.4,0.5c0.3,0.4,0.3,0.9,0,1.3l-0.4,0.6l0.5,0.7c0.2,0.4,0.3,0.8,0,1.2l-0.5,0.8l0.6,0.9
				c0.2,0.4,0.2,0.8,0,1.2l-0.3,0.5c1,1.2,1.6,3,1.7,5c0.1,2.2-0.3,3.9-1.3,4.9c-0.5,0.5-1.1,0.9-1.8,1.1V67.4z M101.7,43.1
				L101.7,43.1L101.7,43.1z"/>
		</g>
	</g>
	<g>
		<path d="M88.6,100.7c0,1.5,1.2,2.7,2.7,2.7c1.5,0,2.7-1.2,2.7-2.7c0-1.5-1.2-2.7-2.7-2.7C89.8,98,88.6,99.2,88.6,100.7z"/>
		<polygon points="95.2,109.2 83.7,105.3 88.8,88.7 90.9,89.3 86.3,103.9 93.8,106.5 97.6,93.7 99.7,94.3 		"/>
		<path d="M87.8,177.7C87.8,177.7,87.8,177.7,87.8,177.7c-3.1-2.9-6.8-11.3-7.8-22c-0.6-6.9-0.6-19.8,6.9-29.6
			c0.4-0.5,0.7-0.9,1-1.3c1-1.2,2-2.3,3-3.3c4.3-4.4,8.8-9,8.8-21.9c0-0.3-0.1-0.6-0.3-0.8c-0.1-0.1-1-1-2.3-2.1v2.9
			c0.2,0.2,0.4,0.3,0.5,0.5c-0.1,11.7-4,15.8-8.2,20c-1,1.1-2.1,2.2-3.2,3.4c-0.4,0.4-0.7,0.9-1.1,1.4c-7.9,10.3-8,23.9-7.3,31.1
			c0.9,10,4.4,19.6,8.4,23.3c0.9,0.8,1.6,1.8,2.1,2.8c1.5,3.2,1,6.8-1.1,8.5c-3.3,2.6-9.8,0.6-17.5-5.4c-5.5-4.4-9.2-15.2-9.4-27.6
			c-0.2-14.8,4.5-29.8,13.1-42.2c6.6-9.4,9.4-15.7,8.3-18.5c-0.2-0.6-0.6-1-1-1.2c-1.4-1.4-3.1-3.7-2.7-4.6c0.2-0.4,1-0.7,2.2-0.8
			c2.5-0.2,5.6,1.2,8.5,2.9v-2.5c-2.9-1.6-6-2.8-8.6-2.6c-2.2,0.2-3.6,0.9-4.1,2.3c-1,2.7,2.7,6.3,3.4,7c0.1,0.1,0.2,0.2,0.3,0.2
			c0.2,0.3,1.4,3.1-8,16.6c-8.9,12.8-13.7,28.2-13.5,43.5c0.1,6.5,1.1,12.7,2.9,17.8c1.8,5.1,4.3,9.1,7.3,11.4
			c4.5,3.6,8.7,5.8,12.2,6.6c1.1,0.2,2,0.3,2.9,0.3c2.4,0,4-0.8,5-1.6c2.9-2.3,3.6-7,1.7-11.1C89.7,179.9,88.8,178.7,87.8,177.7z"/>
	</g>
	<g>
		<path d="M111.4,100.7c0,1.5-1.2,2.7-2.7,2.7c-1.5,0-2.7-1.2-2.7-2.7c0-1.5,1.2-2.7,2.7-2.7C110.2,98,111.4,99.2,111.4,100.7z"/>
		<polygon points="104.8,109.2 100.3,94.3 102.4,93.7 106.2,106.5 113.7,103.9 109.1,89.3 111.2,88.7 116.3,105.3 		"/>
		<path d="M112.2,177.7C112.2,177.7,112.2,177.7,112.2,177.7c3.1-2.9,6.8-11.3,7.8-22c0.6-6.9,0.6-19.8-6.9-29.6
			c-0.4-0.5-0.7-0.9-1-1.3c-1-1.2-2-2.3-3-3.3c-4.3-4.4-8.8-9-8.8-21.9c0-0.3,0.1-0.6,0.3-0.8c0.1-0.1,1-1,2.3-2.1v2.9
			c-0.2,0.2-0.4,0.3-0.5,0.5c0.1,11.7,4,15.8,8.2,20c1,1.1,2.1,2.2,3.2,3.4c0.4,0.4,0.7,0.9,1.1,1.4c7.9,10.3,8,23.9,7.3,31.1
			c-0.9,10-4.4,19.6-8.4,23.3c-0.9,0.8-1.6,1.8-2.1,2.8c-1.5,3.2-1,6.8,1.1,8.5c3.3,2.6,9.8,0.6,17.5-5.4c5.5-4.4,9.2-15.2,9.4-27.6
			c0.2-14.8-4.5-29.8-13.1-42.2c-6.6-9.4-9.4-15.7-8.3-18.5c0.2-0.6,0.6-1,1-1.2c1.4-1.4,3.1-3.7,2.7-4.6c-0.2-0.4-1-0.7-2.2-0.8
			c-2.5-0.2-5.6,1.2-8.5,2.9v-2.5c2.9-1.6,6-2.8,8.6-2.6c2.2,0.2,3.6,0.9,4.1,2.3c1,2.7-2.7,6.3-3.4,7c-0.1,0.1-0.2,0.2-0.3,0.2
			c-0.2,0.3-1.4,3.1,8,16.6c8.9,12.8,13.7,28.2,13.5,43.5c-0.1,6.5-1.1,12.7-2.9,17.8c-1.8,5.1-4.3,9.1-7.3,11.4
			c-4.5,3.6-8.7,5.8-12.2,6.6c-1.1,0.2-2,0.3-2.9,0.3c-2.4,0-4-0.8-5-1.6c-2.9-2.3-3.6-7-1.7-11.1
			C110.3,179.9,111.2,178.7,112.2,177.7z"/>
	</g>
</g>
</svg>
