<?xml version="1.0" encoding="utf-8"?>
<!-- Generator: Adobe Illustrator 24.1.2, SVG Export Plug-In . SVG Version: 6.00 Build 0)  -->
<svg version="1.1" xmlns="http://www.w3.org/2000/svg" xmlns:xlink="http://www.w3.org/1999/xlink" x="0px" y="0px"
	 viewBox="0 0 200 200" style="enable-background:new 0 0 200 200;" xml:space="preserve">
<g id="Calque_1">
	<path d="M159,139.1c-2-14.5-7.9-25.3-12.6-34c-3.3-6-5.8-10.7-5.9-14.5c-0.1-4.2,0.9-6.4,1.7-8.1c1-2.2,2-4.3-0.9-7.9
		c-3.8-4.6-4.8-5.2-8.1-5c-0.2,0-0.5,0-0.7,0.1c-1.3,0.1-1.5-0.1-2.2-0.7c-0.5-0.4-1.1-1-2.1-1.5c-0.8-0.4-1.7-0.9-6.7,3l-2.2-3.2
		c0.8-1.9,1.3-4,1.5-6.1c1.5-0.2,2.4-0.5,3.2-0.9c0,0,0,0,0,0c2.5-1.4,4.5-6.3,5.5-9.1c1.3-3.8,2.9-10,2.7-17.8
		c-0.2-7.6-2.9-13.5-5.1-17.2c-1.5-2.4-5.3-7.8-9.2-7.8c-2.1,0-3.9,1.4-4.3,3.4c-0.1,0.4-0.2,0.9-0.2,1.7
		c-0.8,11.4-4.3,18.8-10.5,21.9c-1.2,0.6-2,1.7-2.2,2.9c-0.2,0-0.5,0-0.7,0c-0.4,0-0.8,0-1.2,0c-0.2-1.4-1-2.6-2.3-3.2
		C90.3,32,86.8,24.6,86,13.2c0-0.7-0.1-1.2-0.2-1.6c-0.5-2-2.3-3.4-4.3-3.4c-3.9,0-7.7,5.5-9.2,7.8c-2.3,3.6-5,9.6-5.1,17.2
		c-0.2,7.8,1.4,14,2.7,17.8c1,2.8,3,7.7,5.5,9v0c0.7,0.4,1.7,0.7,3.1,0.9c0.2,0,0.4,0,0.6,0c0.2,2,0.6,3.8,1.3,5.6l-2.2,3.2
		c-4-3-5.1-2.9-6.1-2.4c-1,0.5-1.7,1.1-2.2,1.5c-0.7,0.6-0.8,0.7-2,0.6c-3.6-0.2-4.6,1-6.9,3.9c-0.5,0.7-1.1,1.4-1.9,2.4
		c-2.8,3.4-2.3,5.2-1.1,7.5c0.7,1.5,1.6,3.3,1.5,7.5c-0.1,3.7-2.6,8.4-5.9,14.4c-4.7,8.7-10.6,19.6-12.7,34.1
		c-2.6,18.8-0.6,40.7,4.4,48.9c1.9,3.1,4,3.9,5.6,3.9c1,0,1.8-0.3,2.3-0.5c5.6-2.6,6.9-11.7,8.8-24.4c1.4-9.6,3.2-21.5,7.4-32.7
		c7-18.8,18.7-32.3,24.3-38.8c2.3-2.6,3.1-3.6,3.4-4.4c0.6-1.5-0.2-3.3-3.4-6.8L93.8,84l2.7-4.1c1.1,0.2,2.3,0.3,3.5,0.3
		c0.9,0,1.9-0.1,2.8-0.2l3.1,5c-3,3.4-3.3,4.8-2.8,6c0.3,0.8,1.2,1.9,3.4,4.4c5.6,6.5,17.3,20,24.4,38.8c4.2,11.2,6,23.2,7.4,32.8
		c1.9,12.6,3.3,21.7,8.7,24.2c0.5,0.2,1.3,0.5,2.2,0.5c1.6,0,3.6-0.8,5.4-3.8C159.6,179.7,161.6,157.8,159,139.1z M117.5,13.7
		c0-0.4,0-0.7,0.1-0.9c0-0.2,0.1-0.2,0.3-0.2c1.7,0,9.9,8.7,10.2,20.9c0.3,13.4-4.9,22.6-6,23.2c-0.2,0.1-0.7,0.2-1.3,0.3
		c-0.9-8.8-7.3-16-15.8-18.1C112.5,35,116.7,26.5,117.5,13.7z M77.4,56.4c-1.1-0.6-6.3-9.7-6-23.2c0.2-12.3,8.4-20.9,10.2-20.9
		c0.2,0,0.3,0.1,0.3,0.2c0,0.1,0.1,0.4,0.1,0.9c0.8,13,5.1,21.6,12.8,25.4c-8.3,2.2-14.6,9.3-15.5,18.1
		C78.3,56.7,77.7,56.5,77.4,56.4z M90.9,92.7c-5.8,6.7-17.8,20.6-25.1,40c-4.3,11.6-6.2,23.8-7.6,33.6c-1.6,10.5-2.9,19.6-6.5,21.2
		c-0.4,0.2-1.3,0.6-2.7-1.8c-4.6-7.4-6.3-28.5-3.9-46.1c1.9-13.8,7.6-24.3,12.2-32.7c3.5-6.5,6.3-11.6,6.4-16.2
		c0.1-5.2-1.1-7.7-2-9.4c-0.7-1.4-0.7-1.4,0.6-3c0.8-1,1.4-1.8,1.9-2.4c0.9-1.1,1.5-1.9,1.9-2.2c0.1-0.1,0.2-0.1,0.7-0.1
		c0.2,0,0.4,0,0.7,0c2.7,0.2,3.9-0.6,5-1.7c0.2-0.2,0.4-0.4,0.7-0.6c2.5,1.4,10.9,8.4,16.7,14.4l0.5,0.6c1.7,1.9,2.5,2.9,2.8,3.5
		C92.8,90.5,91.8,91.7,90.9,92.7z M91.8,81.4L81,71l0.9-1.3c2.5,4.3,6.6,7.7,11.4,9.3L91.8,81.4z M100,76c-9.3,0-16.8-7.5-16.8-16.8
		s7.5-16.8,16.8-16.8s16.8,7.5,16.8,16.8S109.3,76,100,76z M106,79.3L106,79.3c4.9-1.5,9-4.7,11.7-8.9l1.1,1.6l-11,10.1L106,79.3z
		 M151.5,185.9c-1.6,2.6-2.6,2.1-3.1,1.9c-3.7-1.7-5-10.8-6.6-21.4c-1.5-9.8-3.3-21.9-7.6-33.5c-7.2-19.4-19.2-33.3-25-40
		c-1-1.2-2-2.4-2.5-3c0.3-0.5,1-1.6,2.9-3.7l0.3-0.4c5.9-6.3,14.7-13.6,17.1-14.8c0.3,0.2,0.5,0.4,0.8,0.7c1.1,1,2.2,1.8,4.8,1.6
		c0.3,0,0.6,0,0.8-0.1c1.8-0.2,1.9-0.2,5,3.6c1.5,1.8,1.3,2.1,0.4,4.1c-0.9,1.9-2.2,4.7-2,9.7c0.1,4.6,2.9,9.7,6.4,16.1
		c4.6,8.4,10.3,19,12.2,32.8C157.9,157.3,156.1,178.5,151.5,185.9z"/>
	<path d="M100,70.5c-6.3,0-11.5-5.2-11.5-11.5s5.2-11.5,11.5-11.5s11.5,5.2,11.5,11.5S106.3,70.5,100,70.5z M100,51.6
		c-4.1,0-7.4,3.3-7.4,7.4s3.3,7.4,7.4,7.4s7.4-3.3,7.4-7.4S104.1,51.6,100,51.6z"/>
</g>
<g id="Calque_2">
</g>
</svg>
