<?xml version="1.0" encoding="utf-8"?>
<!-- Generator: Adobe Illustrator 24.1.2, SVG Export Plug-In . SVG Version: 6.00 Build 0)  -->
<svg version="1.1" id="Calque_1" xmlns="http://www.w3.org/2000/svg" xmlns:xlink="http://www.w3.org/1999/xlink" x="0px" y="0px"
	 viewBox="0 0 200 200" style="enable-background:new 0 0 200 200;" xml:space="preserve">
<g>
	<g>
		<path d="M79.2,94.2c-0.2,0.1-0.5,0.1-0.7,0.1c-0.1,0-0.2-0.1-0.3-0.1l-12.4-3.5c-0.3-0.1-0.5-0.3-0.6-0.5l-9-17.8
			c-0.1-0.2-0.1-0.5-0.1-0.7l8.5-32.1l2,0.5l-0.4,1.5c0,2,0.4,3.9,1.3,5.7c0.8,1.7,1.9,3.1,3.3,4.3c0.3,0.3,0.4,0.7,0.3,1.1
			l-6.3,20.2c-0.2,0.8-0.2,1.6,0.2,2.3c0.4,0.7,1,1.3,1.8,1.5c0.8,0.2,1.6,0.2,2.3-0.2c0.7-0.4,1.3-1,1.5-1.8l6-19.5
			c0.1-0.5,0.6-0.8,1.1-0.7c1.1,0.1,2.1,0.1,3.2-0.1c0.3-0.1,0.7,0.1,0.9,0.3c0.2,0.3,0.3,0.6,0.2,0.9l-7.2,27.2l5,10
			c0.2,0.4,0.1,0.8-0.1,1.1C79.5,94,79.3,94.1,79.2,94.2z M66.7,88.8l10.2,2.8l-4.1-8.3c-0.1-0.2-0.1-0.5-0.1-0.7l6.9-26.2
			c-0.4,0-0.9,0-1.3,0l-5.8,18.7c-0.4,1.3-1.3,2.4-2.5,3c-1.2,0.6-2.6,0.8-3.9,0.4c-1.3-0.4-2.4-1.3-3-2.5c-0.6-1.2-0.8-2.6-0.4-3.9
			l6.1-19.6c-1.4-1.3-2.5-2.8-3.3-4.5c-0.3-0.6-0.5-1.2-0.7-1.8l-6.7,25.5L66.7,88.8z"/>
		<path d="M100.6,83.8c-0.1,0.1-0.3,0.1-0.4,0.1c-0.4,0-0.8-0.2-0.9-0.6l-14.4-29c-7,3.2-15.3,0.3-18.7-6.7c-1.2-2.4-1.6-5-1.3-7.6
			l-1.8-3.5c-0.7-0.5-1.4-1-2.2-1.5c-1.9-1.3-3.8-2.6-5.7-4c-3.8-2.8-10.6-14.4-8.7-19.1c0.1-0.3,0.3-0.5,0.6-0.6
			c0.3-0.1,0.6-0.1,0.8,0l5,2.4c0.2,0.1,0.4,0.2,0.5,0.4l0.7,1.2l7.6,3.7l0.9-0.3c0.3-0.1,0.5-0.1,0.8,0l5.5,2.7
			c0.2,0.1,0.4,0.3,0.5,0.5l1.7,4.3l3.4,1.9c3.2-1.1,6.6-1,9.7,0.3c3.3,1.3,5.9,3.8,7.5,7c0.6,1.3,1,2.6,1.2,4l13.7,30.1
			c0.1,0.3,0.1,0.6,0,0.8L101.2,83c0,0.1-0.1,0.2-0.1,0.3C101,83.5,100.8,83.7,100.6,83.8z M84.9,52.1c0.2-0.1,0.5-0.1,0.7-0.1
			c0.3,0.1,0.5,0.3,0.6,0.5l13.8,27.9l4.4-10.5L91,40.2c0-0.1-0.1-0.2-0.1-0.3c-0.2-1.2-0.5-2.4-1.1-3.5c-2.7-5.6-9.2-8.3-15.1-6.1
			c-0.3,0.1-0.6,0.1-0.8-0.1l-4.1-2.3c-0.2-0.1-0.4-0.3-0.4-0.5l-1.7-4.3l-4.8-2.3l-0.9,0.3c-0.3,0.1-0.5,0.1-0.8,0l-8.2-4
			c-0.2-0.1-0.3-0.2-0.4-0.4l-0.7-1.2l-3.5-1.7c0,1.7,0.8,4.4,2.4,7.5c1.8,3.6,4.2,6.9,5.9,8.1c1.9,1.4,3.8,2.7,5.7,4
			c0.8,0.6,1.6,1.1,2.4,1.7c0.1,0.1,0.2,0.2,0.3,0.4l2.1,4C67,39.6,67,39.8,67,40c-0.3,2.3,0.1,4.7,1.1,6.8c2.9,6,10.1,8.5,16.1,5.6
			C84.4,52.4,84.6,52.3,84.9,52.1C84.9,52.1,84.9,52.1,84.9,52.1z"/>
		<path d="M147.9,182.6c-0.2,0.1-0.4,0.1-0.6,0.1c-2.6-0.5-3.4-1.2-4.2-3.6l-0.5-1.5c-0.3-1-0.6-2-0.9-3.1c-0.1-0.3-0.1-0.5,0.1-0.8
			l3.7-6.7c-5.5-14.6-11-29.3-16.6-43.9l-12.1-6c-0.2-0.1-0.3-0.2-0.4-0.4c-4.4-8.2-9.2-16.7-15.1-23.3c-0.1-0.1-0.1-0.1-0.1-0.2
			l-0.1-0.2c-2-3.6-3.1-5.6-1.1-10.5c1.7-3.9,3.3-7.9,5-11.8l0.6-1.3c0.2-0.5,0.8-0.7,1.3-0.6c7.9,3,7.8,6.1,7.7,9.8
			c-0.1,2.7-0.2,5.7,2.7,9.9c5.9,8.2,12.7,18.3,18.3,30.3c6.5,13.8,12.1,31.1,17.2,47.8c1.9,6.3,1.7,10-4.6,15.9
			C148.1,182.5,148,182.5,147.9,182.6z M143.8,174.3c0.3,0.9,0.5,1.8,0.8,2.7l0.5,1.5c0.4,1.5,0.6,1.8,2.1,2.1
			c5.2-4.9,5.4-7.7,3.7-13.4c-5.1-16.6-10.7-33.8-17.1-47.5c-5.5-11.8-12.3-21.8-18.1-29.9c0,0,0,0,0,0c-3.2-4.8-3.1-8.3-3.1-11.1
			c0.1-3.3,0.1-5.2-5.5-7.5l-0.2,0.4c-1.7,3.9-3.3,7.9-5,11.8c-1.7,4-1,5.1,1,8.7l0.1,0.1c6,6.7,10.8,15.1,15.2,23.3l12.2,6
			c0.2,0.1,0.4,0.3,0.5,0.6c5.6,14.9,11.2,29.8,16.9,44.7c0.1,0.3,0.1,0.6-0.1,0.9L143.8,174.3z"/>
		<path d="M142.9,174.8c-0.2,0.1-0.3,0.1-0.5,0.1c-0.4,0-0.7-0.3-0.9-0.7c-8.1-22-14.1-35.8-24.7-56.9c-0.2-0.4-0.1-0.9,0.2-1.2
			c0.3-0.3,0.8-0.4,1.2-0.2l11.8,5.8c0.2,0.1,0.4,0.3,0.5,0.6l16.8,44.5c0.1,0.3,0.1,0.6-0.1,0.9l-3.8,6.8
			C143.2,174.5,143.1,174.7,142.9,174.8z M119.9,119.1c9.5,19.1,15.3,32.4,22.7,52.4l2.5-4.4l-16.4-43.6L119.9,119.1z"/>
		<path d="M127,192.6c-0.1,0-0.2,0.1-0.3,0.1c-8.5,1.3-11.6-0.9-15.3-6.3c-9.9-14.4-19.9-29.6-26.7-43.2
			c-5.9-11.9-9.5-23.4-12.3-33.1c-1.5-4.8-3.9-6.7-6.1-8.3c-2.9-2.2-5.4-4.1-2.9-12.1c0.2-0.5,0.7-0.8,1.2-0.7l13.8,3.8
			c5.1,1.4,6,3.5,7.5,7.3l0.1,0.2c0,0.1,0.1,0.1,0.1,0.2c1.5,8.7,5.1,17.8,8.8,26.4c0.1,0.2,0.1,0.4,0.1,0.6l-0.7,3
			c-0.7,3.4-1.5,6.8-2.2,10.2l24.1,40.3l7.6,1.3c0.3,0,0.5,0.2,0.7,0.4l2.7,3.9c1.4,2.1,1.5,3.2,0.2,5.5
			C127.4,192.4,127.2,192.5,127,192.6z M65.1,91.2c-1.7,5.8-0.2,6.9,2.4,8.9c2.3,1.7,5.1,3.8,6.8,9.3c0,0,0,0,0,0
			c2.8,9.6,6.4,21.1,12.2,32.8c6.7,13.5,16.7,28.7,26.5,43c3.4,5,5.8,6.5,12.8,5.5c0.7-1.3,0.5-1.7-0.4-2.9l-2.5-3.6l-7.6-1.3
			c-0.3,0-0.6-0.2-0.7-0.5l-24.5-41c-0.1-0.2-0.2-0.5-0.1-0.7c0.8-3.5,1.5-7,2.3-10.5l0.6-2.7c-3.7-8.5-7.3-17.6-8.8-26.4l0-0.1
			c-1.5-3.7-2.1-5-6.2-6.2L65.1,91.2z"/>
		<path d="M124,183.9c-0.2,0.1-0.4,0.1-0.6,0.1l-7.6-1.3c-0.3,0-0.6-0.2-0.7-0.5l-24.4-40.8c-0.1-0.2-0.2-0.5-0.1-0.7l2.8-12.8
			c0.1-0.4,0.4-0.7,0.9-0.8c0.4,0,0.8,0.2,1,0.6c9.9,21.5,17,34.8,29.2,54.8c0.2,0.3,0.2,0.8,0,1.1
			C124.3,183.7,124.2,183.8,124,183.9z M116.6,180.8l5,0.8c-11-18.2-17.9-31-26.8-50.4l-2.1,9.5L116.6,180.8z"/>
		<path d="M87.9,31.6c0,0-0.1,0-0.1,0c-0.3,0.1-0.7,0-0.9-0.2c-3.4-2.7-8-3.5-12.1-2.1c-0.3,0.1-0.6,0.1-0.8-0.1l-3.5-2
			c-0.2-0.1-0.4-0.3-0.4-0.5l-2-4.8l-4.3-2.5c-0.2-0.1-0.3-0.3-0.4-0.5l-0.3-0.6c0-0.1-0.1-0.2-0.1-0.3l-8.2-4.5l-1.1,0.4
			c-0.3,0.1-0.5,0.1-0.8-0.1L48,11.5c-0.3-0.2-0.6-0.5-0.6-0.9c0-0.4,0.2-0.7,0.5-0.9C58,3.9,73,7.8,81.7,15
			c0.1,0.1,0.2,0.2,0.3,0.4l6.5,14.8c0.1,0.2,0.1,0.5,0,0.7l0,0.1C88.4,31.2,88.2,31.5,87.9,31.6z M74.6,27.4
			c3.6-1.1,7.4-0.8,10.8,0.8l-5.1-11.7c-7.7-6.2-20.3-9.8-29.5-5.8l2.6,1.3l1.2-0.4c0.3-0.1,0.6-0.1,0.8,0.1l8.9,4.9
			c0.2,0.1,0.4,0.3,0.5,0.5c0.1,0.2,0.2,0.5,0.3,0.7l0.1,0.3l4.3,2.5c0.2,0.1,0.3,0.3,0.4,0.5l1.9,4.8L74.6,27.4z"/>
	</g>
	<path d="M83.2,50.3c-4.8,2.3-10.5,0.3-12.8-4.5c-2.3-4.8-0.3-10.5,4.5-12.8s10.5-0.3,12.8,4.5C90,42.2,88,48,83.2,50.3z M75.8,34.9
		c-3.7,1.8-5.3,6.3-3.5,10.1c1.8,3.7,6.3,5.3,10.1,3.5s5.3-6.3,3.5-10.1C84,34.6,79.5,33.1,75.8,34.9z"/>
</g>
</svg>
