<?xml version="1.0" encoding="utf-8"?>
<!-- Generator: Adobe Illustrator 24.1.2, SVG Export Plug-In . SVG Version: 6.00 Build 0)  -->
<svg version="1.1" id="Calque_1" xmlns="http://www.w3.org/2000/svg" xmlns:xlink="http://www.w3.org/1999/xlink" x="0px" y="0px"
	 viewBox="0 0 200 200" style="enable-background:new 0 0 200 200;" xml:space="preserve">
<style type="text/css">
	.st0{fill:none;stroke:#000000;stroke-width:3;stroke-linecap:round;stroke-linejoin:round;stroke-miterlimit:10;}
	.st1{fill:none;stroke:#000000;stroke-width:2;stroke-linecap:round;stroke-miterlimit:10;}
</style>
<g>
	<g>
		<path d="M114.6,33.3c36.9,0,66.7,29.9,66.7,66.7s-29.9,66.7-66.7,66.7S47.9,136.9,47.9,100S77.7,33.3,114.6,33.3 M114.6,30.3
			c-38.4,0-69.7,31.3-69.7,69.7s31.3,69.7,69.7,69.7s69.7-31.3,69.7-69.7S153,30.3,114.6,30.3L114.6,30.3z"/>
	</g>
	<g>
		<path d="M114.6,66.1c18.7,0,33.9,15.2,33.9,33.9s-15.2,33.9-33.9,33.9c-18.7,0-33.9-15.2-33.9-33.9S95.9,66.1,114.6,66.1
			 M114.6,63.1c-20.3,0-36.9,16.5-36.9,36.9s16.5,36.9,36.9,36.9s36.9-16.5,36.9-36.9S134.9,63.1,114.6,63.1L114.6,63.1z"/>
	</g>
	<g>
		<path d="M115,78.9c11.5,0,20.9,9.4,20.9,20.9s-9.4,20.9-20.9,20.9s-20.9-9.4-20.9-20.9S103.4,78.9,115,78.9 M115,76.9
			c-12.6,0-22.9,10.3-22.9,22.9s10.3,22.9,22.9,22.9s22.9-10.3,22.9-22.9S127.6,76.9,115,76.9L115,76.9z"/>
	</g>
	<path class="st0" d="M63.3,54.6c0,0-14.1,7.3-23.8,12.2c-6.9,3.4-13.6,6.2-15.2,6.9c-3.3,1.7-6.7,5.3-5.1,10.8
		c1.6,5.6,6.2,8.4,9.8,7.9c3.5-0.5,6.5-2.4,6.5-2.4"/>
	<path class="st1" d="M152.6,55.4C159.7,59.5,173,73,172,99.7"/>
	<path class="st1" d="M148.5,67.4c4.8,2.6,14,11.4,13.8,29.3"/>
</g>
</svg>
