<svg id="Calque_1" data-name="Calque 1" xmlns="http://www.w3.org/2000/svg" viewBox="0 0 134.3 134.3"><path d="M100,35.85A64.15,64.15,0,1,1,35.85,100,64.23,64.23,0,0,1,100,35.85m0-3A67.15,67.15,0,1,0,167.15,100,67.14,67.14,0,0,0,100,32.85Z" transform="translate(-32.85 -32.85)"/><path d="M126.26,76l-8.82-1a8.35,8.35,0,0,1-5.91-3.48L106.83,65a8.38,8.38,0,0,0-13.66,0l-4.7,6.63a8.35,8.35,0,0,1-5.91,3.48l-8.82,1A8.38,8.38,0,0,0,67,87.67l3.89,9A8.35,8.35,0,0,1,71,103l-4.37,11.6a8.37,8.37,0,0,0,7.44,11.32l8.75.41a8.38,8.38,0,0,1,6.33,3.37l4.12,5.55a8.37,8.37,0,0,0,13.44,0l4.12-5.55a8.38,8.38,0,0,1,6.33-3.37l8.75-.41a8.37,8.37,0,0,0,7.44-11.32L129,103a8.35,8.35,0,0,1,.15-6.27l3.89-9A8.38,8.38,0,0,0,126.26,76Z" transform="translate(-32.85 -32.85)"/></svg>