<?xml version="1.0" encoding="utf-8"?>
<!-- Generator: Adobe Illustrator 24.1.2, SVG Export Plug-In . SVG Version: 6.00 Build 0)  -->
<svg version="1.1" id="Calque_1" xmlns="http://www.w3.org/2000/svg" xmlns:xlink="http://www.w3.org/1999/xlink" x="0px" y="0px"
	 viewBox="0 0 200 200" style="enable-background:new 0 0 200 200;" xml:space="preserve">
<g>
	<path d="M109.7,36.3v51.7H34.2c-8.4,0-15.2-6.8-15.2-15.2V51.5c0-8.4,6.8-15.2,15.2-15.2H109.7 M112.7,33.3H34.2
		c-10,0-18.2,8.1-18.2,18.2v21.3c0,10,8.1,18.2,18.2,18.2h78.5V33.3L112.7,33.3z"/>
	<path d="M93.2,51c1.1,0,2,0.9,2,2v19c0,1.1-0.9,2-2,2H37.1c-1.1,0-2-0.9-2-2V53c0-1.1,0.9-2,2-2H93.2 M93.2,48H37.1
		c-2.8,0-5,2.2-5,5v19c0,2.8,2.2,5,5,5h56.1c2.8,0,5-2.2,5-5V53C98.2,50.2,96,48,93.2,48L93.2,48z"/>
	
		<rect x="30.8" y="110.9" transform="matrix(6.772923e-02 -0.9977 0.9977 6.772923e-02 -62.7154 157.6682)" width="44.4" height="3"/>
	<rect x="81.5" y="90.2" transform="matrix(0.9977 -6.783133e-02 6.783133e-02 0.9977 -7.4325 5.892)" width="3" height="44.4"/>
	<path d="M102.3,166.8H34c-1.9,0-3.4-1.5-3.4-3.4v-17.8c0-7.6,6.2-13.8,13.8-13.8h47.5c7.6,0,13.8,6.2,13.8,13.8v17.8
		C105.7,165.3,104.2,166.8,102.3,166.8z M44.4,134.9c-5.9,0-10.8,4.8-10.8,10.8v17.8c0,0.2,0.2,0.4,0.4,0.4h68.3
		c0.2,0,0.4-0.2,0.4-0.4v-17.8c0-5.9-4.8-10.8-10.8-10.8H44.4z"/>
	<path d="M92.6,108.2h-10v-3h10c1.5,0,2.9-0.9,3.4-2.3l5.5-13.9l2.8,1.1L98.9,104C97.9,106.6,95.4,108.2,92.6,108.2z"/>
	<path d="M112.6,37.7l15.4,9.6v30.9l-15.4,9.1V38.5 M109.6,33.3v57.7l3.1,0L131,79.9V45.5l-18.3-12.2L109.6,33.3L109.6,33.3z"/>
	<path d="M142.3,48.5c5.3,0,9.6,4.3,9.6,9.6v9c0,5.3-4.3,9.6-9.6,9.6H131V48.5H142.3 M142.3,45.5H128v34.3h14.3
		c7,0,12.6-5.7,12.6-12.6v-9C154.9,51.2,149.3,45.5,142.3,45.5L142.3,45.5z"/>
	<path d="M184.7,57.8c2.5,0,4.6,2.1,4.6,4.6s-2.1,4.6-4.6,4.6h-29.3v-9.2H184.7 M184.7,54.8h-32.3V70h32.3c4.2,0,7.6-3.4,7.6-7.6
		S188.9,54.8,184.7,54.8L184.7,54.8z"/>
</g>
</svg>
